<?xml version="1.0" standalone="no"?>
<!DOCTYPE svg PUBLIC "-//W3C//DTD SVG 20010904//EN"
 "http://www.w3.org/TR/2001/REC-SVG-20010904/DTD/svg10.dtd">
<svg version="1.0" xmlns="http://www.w3.org/2000/svg"
 width="300.000000pt" height="300.000000pt" viewBox="0 0 300.000000 300.000000"
 preserveAspectRatio="xMidYMid meet">
<metadata>
Created by potrace 1.11, written by Peter Selinger 2001-2013
</metadata>
<g transform="translate(0.000000,300.000000) scale(0.100000,-0.100000)"
fill="#000000" stroke="none">
<path d="M0 1500 l0 -1500 1500 0 1500 0 0 1500 0 1500 -1500 0 -1500 0 0
-1500z m1853 956 c99 -29 196 -71 269 -116 34 -21 50 -26 53 -18 3 7 13 42 24
78 17 64 18 65 52 65 l34 0 6 -120 c4 -66 10 -196 14 -288 l6 -168 -47 3 -47
3 -18 52 c-87 256 -305 413 -574 413 -382 0 -618 -294 -641 -800 -20 -419 109
-729 349 -844 229 -110 534 -78 709 74 67 58 140 173 178 279 l33 91 53 0 54
0 0 -311 0 -310 -47 3 -47 3 -27 90 c-15 50 -31 89 -35 88 -5 -1 -46 -26 -92
-57 -128 -84 -269 -131 -442 -145 -434 -38 -794 160 -945 519 -110 262 -103
652 18 913 136 295 385 477 722 531 17 2 91 3 165 1 110 -3 151 -8 223 -29z"/>
</g>
</svg>
